<svg width="128" height="128" viewBox="0 0 128 128" fill="none" xmlns="http://www.w3.org/2000/svg">
<rect width="128" height="128" fill="black"/>
<path d="M58.785 85.445L53.725 86.545L74.405 30.83C75.2117 28.52 76.1283 26.98 77.155 26.21C78.1817 25.4033 79.6117 25 81.445 25H93.435C94.5717 25 95.415 25.2567 95.965 25.77C96.515 26.2833 96.79 27.0167 96.79 27.97C96.79 28.7033 96.5883 29.345 96.185 29.895C95.8183 30.4083 95.2133 30.8483 94.37 31.215L91.675 31.93C90.4283 32.2967 89.585 32.865 89.145 33.635C88.7417 34.405 88.595 35.67 88.705 37.43L92.445 91.165C92.555 92.4117 92.7933 93.31 93.16 93.86C93.5633 94.41 94.1867 94.8133 95.03 95.07L98.22 95.785C98.9167 96.0417 99.4667 96.4267 99.87 96.94C100.273 97.4167 100.475 98.0767 100.475 98.92C100.475 99.8367 100.2 100.588 99.65 101.175C99.1 101.725 98.2567 102 97.12 102H75.01C73.8733 102 73.0117 101.743 72.425 101.23C71.875 100.68 71.6 99.9467 71.6 99.03C71.6 98.26 71.8017 97.6183 72.205 97.105C72.6083 96.555 73.2133 96.115 74.02 95.785L77.21 95.07C78.1633 94.8133 78.8417 94.41 79.245 93.86C79.685 93.2733 79.8683 92.3933 79.795 91.22L75.56 35.34L79.3 35.175L58.07 91.935C57.3 93.9883 56.5483 95.345 55.815 96.005C55.0817 96.6283 54.22 96.94 53.23 96.94C52.4967 96.94 51.8367 96.83 51.25 96.61C50.7 96.3533 50.15 95.84 49.6 95.07C49.0867 94.3 48.5367 93.1267 47.95 91.55L26.61 35.505L30.075 34.46L26.17 90.56C26.0967 91.77 26.2617 92.7233 26.665 93.42C27.0683 94.1167 27.875 94.7217 29.085 95.235L32.22 96.115C32.8433 96.335 33.32 96.6833 33.65 97.16C34.0167 97.6367 34.2 98.2233 34.2 98.92C34.2 99.8733 33.925 100.625 33.375 101.175C32.825 101.725 31.9817 102 30.845 102H14.675C13.575 102 12.7317 101.743 12.145 101.23C11.595 100.68 11.32 99.9467 11.32 99.03C11.32 98.1867 11.54 97.5267 11.98 97.05C12.42 96.5367 13.08 96.0967 13.96 95.73L16.93 95.07C17.81 94.8133 18.47 94.355 18.91 93.695C19.35 92.9983 19.625 92.0083 19.735 90.725L23.53 36.33C23.64 35.1933 23.5483 34.2767 23.255 33.58C22.9617 32.8833 22.3567 32.3517 21.44 31.985L18.085 31.215C17.1683 30.8483 16.5083 30.4083 16.105 29.895C15.7383 29.3817 15.555 28.74 15.555 27.97C15.555 25.99 16.6917 25 18.965 25H31.725C33.2283 25 34.4383 25.3483 35.355 26.045C36.3083 26.7417 37.1333 28.08 37.83 30.06L58.785 85.445ZM68.361 25H103.011C104.038 25 104.899 24.835 105.596 24.505C106.293 24.1383 106.953 23.79 107.576 23.46C108.236 23.13 108.933 22.965 109.666 22.965C110.876 22.965 111.774 23.295 112.361 23.955C112.984 24.615 113.479 25.6783 113.846 27.145L117.256 41.995C117.549 43.1317 117.494 44.085 117.091 44.855C116.688 45.5883 116.046 46.0467 115.166 46.23C114.359 46.4133 113.626 46.3217 112.966 45.955C112.306 45.5517 111.756 44.8183 111.316 43.755C110.143 40.235 109.061 37.595 108.071 35.835C107.118 34.0383 106.054 32.8283 104.881 32.205C103.744 31.545 102.351 31.215 100.701 31.215H91.956V91.33C91.956 92.3567 92.176 93.1633 92.616 93.75C93.056 94.3367 93.7527 94.7767 94.706 95.07L98.941 95.785C100.591 96.4083 101.416 97.49 101.416 99.03C101.416 101.01 100.279 102 98.006 102H73.146C72.0827 102 71.2577 101.743 70.671 101.23C70.0843 100.717 69.791 99.9833 69.791 99.03C69.791 97.49 70.616 96.4083 72.266 95.785L76.501 95.07C77.4177 94.7767 78.0777 94.3367 78.481 93.75C78.8843 93.1633 79.086 92.3567 79.086 91.33V31.215H69.901C68.2877 31.215 66.9493 31.5267 65.886 32.15C64.8227 32.7733 63.8143 33.9833 62.861 35.78C61.9443 37.5767 60.8993 40.235 59.726 43.755C59.3227 44.8183 58.791 45.5517 58.131 45.955C57.5077 46.3217 56.7743 46.4133 55.931 46.23C55.051 46.0467 54.4093 45.5883 54.006 44.855C53.6027 44.085 53.5477 43.1317 53.841 41.995L57.196 27.09C57.526 25.6233 58.0027 24.56 58.626 23.9C59.286 23.24 60.1843 22.91 61.321 22.91C62.1277 22.91 62.8427 23.075 63.466 23.405C64.126 23.735 64.8227 24.0833 65.556 24.45C66.326 24.8167 67.261 25 68.361 25Z" fill="white"/>
</svg>
